<svg width="17" height="16" viewBox="0 0 17 16" fill="none" xmlns="http://www.w3.org/2000/svg">
<path d="M13.838 6.53073L8.83797 11.5307C8.76829 11.6007 8.6855 11.6561 8.59434 11.694C8.50317 11.7318 8.40543 11.7513 8.30672 11.7513C8.20801 11.7513 8.11027 11.7318 8.01911 11.694C7.92794 11.6561 7.84515 11.6007 7.77547 11.5307L2.77547 6.53073C2.63457 6.38984 2.55542 6.19874 2.55542 5.99948C2.55542 5.80023 2.63457 5.60913 2.77547 5.46823C2.91637 5.32734 3.10746 5.24818 3.30672 5.24818C3.50598 5.24818 3.69707 5.32734 3.83797 5.46823L8.30735 9.93761L12.7767 5.46761C12.9176 5.32671 13.1087 5.24756 13.308 5.24756C13.5072 5.24756 13.6983 5.32671 13.8392 5.46761C13.9801 5.60851 14.0593 5.7996 14.0593 5.99886C14.0593 6.19812 13.9801 6.38921 13.8392 6.53011L13.838 6.53073Z" fill="#121212"/>
</svg>
