<svg width="28" height="29" viewBox="0 0 28 29" fill="none" xmlns="http://www.w3.org/2000/svg">
<g id="4">
<circle id="BG" cx="14" cy="14.9795" r="13.5" fill="white" stroke="#E8E8E8"/>
<g id="logo-github 1">
<g id="Group">
<path id="Vector" fill-rule="evenodd" clip-rule="evenodd" d="M14.6068 8.20605C11.0159 8.20605 8.12695 11.095 8.12695 14.686C8.12695 17.5479 9.98992 19.9779 12.5549 20.8419C12.8789 20.8959 12.9869 20.7069 12.9869 20.5179C12.9869 20.3559 12.9869 19.9509 12.9869 19.4109C11.1779 19.8159 10.7999 18.5469 10.7999 18.5469C10.5029 17.7909 10.0709 17.6019 10.0709 17.6019C9.47693 17.1969 10.1249 17.1969 10.1249 17.1969C10.7729 17.2509 11.1239 17.8719 11.1239 17.8719C11.6909 18.8709 12.6359 18.5739 13.0139 18.4119C13.0679 17.9799 13.2299 17.7099 13.4189 17.5479C11.9879 17.3859 10.4759 16.8189 10.4759 14.335C10.4759 13.633 10.7189 13.039 11.1509 12.607C11.0969 12.445 10.8539 11.797 11.2049 10.879C11.2049 10.879 11.7449 10.717 12.9869 11.554C13.4999 11.419 14.0669 11.338 14.6068 11.338C15.1468 11.338 15.7138 11.419 16.2268 11.554C17.4688 10.717 18.0088 10.879 18.0088 10.879C18.3598 11.77 18.1438 12.418 18.0628 12.607C18.4678 13.066 18.7378 13.633 18.7378 14.335C18.7378 16.8189 17.2258 17.3589 15.7678 17.5209C16.0108 17.7099 16.1998 18.1149 16.1998 18.7089C16.1998 19.5729 16.1998 20.2749 16.1998 20.4909C16.1998 20.6529 16.3078 20.8689 16.6588 20.8149C19.2238 19.9779 21.0867 17.5479 21.0867 14.686C21.0867 11.095 18.1978 8.20605 14.6068 8.20605Z" fill="#121212"/>
</g>
</g>
</g>
</svg>
