<svg width="14" height="13" viewBox="0 0 14 13" fill="none" xmlns="http://www.w3.org/2000/svg">
<path fill-rule="evenodd" clip-rule="evenodd" d="M6.60685 0.206055C3.01591 0.206055 0.126953 3.09501 0.126953 6.68595C0.126953 9.5479 1.98992 11.9779 4.55488 12.8419C4.87888 12.8959 4.98688 12.7069 4.98688 12.5179C4.98688 12.3559 4.98688 11.9509 4.98688 11.4109C3.1779 11.8159 2.79991 10.5469 2.79991 10.5469C2.50291 9.7909 2.07092 9.6019 2.07092 9.6019C1.47693 9.19691 2.12492 9.19691 2.12492 9.19691C2.77291 9.25091 3.1239 9.8719 3.1239 9.8719C3.6909 10.8709 4.63588 10.5739 5.01387 10.4119C5.06787 9.9799 5.22987 9.7099 5.41887 9.5479C3.98789 9.38591 2.47592 8.81892 2.47592 6.33496C2.47592 5.63297 2.71891 5.03898 3.1509 4.60698C3.09691 4.44499 2.85391 3.797 3.2049 2.87901C3.2049 2.87901 3.74489 2.71701 4.98688 3.554C5.49987 3.419 6.06686 3.338 6.60685 3.338C7.14684 3.338 7.71383 3.419 8.22682 3.554C9.4688 2.71701 10.0088 2.87901 10.0088 2.87901C10.3598 3.77 10.1438 4.41799 10.0628 4.60698C10.4678 5.06598 10.7378 5.63297 10.7378 6.33496C10.7378 8.81892 9.22581 9.35891 7.76783 9.5209C8.01083 9.7099 8.19982 10.1149 8.19982 10.7089C8.19982 11.5729 8.19982 12.2749 8.19982 12.4909C8.19982 12.6529 8.30782 12.8689 8.65882 12.8149C11.2238 11.9779 13.0867 9.5479 13.0867 6.68595C13.0867 3.09501 10.1978 0.206055 6.60685 0.206055Z" fill="#121212"/>
</svg>
