<svg width="14" height="14" viewBox="0 0 14 14" fill="none" xmlns="http://www.w3.org/2000/svg">
<path d="M7.00076 1.4267C8.80947 1.4267 9.02366 1.43347 9.73818 1.46605C10.1678 1.47131 10.5933 1.5502 10.9962 1.69928C11.2884 1.81197 11.5538 1.9846 11.7753 2.20605C11.9967 2.42751 12.1694 2.69288 12.282 2.98509C12.4311 3.38803 12.51 3.81355 12.5153 4.24315C12.5475 4.95767 12.5546 5.17186 12.5546 6.98057C12.5546 8.78928 12.5479 9.00347 12.5153 9.71799C12.51 10.1476 12.4311 10.5731 12.282 10.9761C12.1694 11.2683 11.9967 11.5336 11.7753 11.7551C11.5538 11.9765 11.2884 12.1492 10.9962 12.2619C10.5933 12.4109 10.1678 12.4898 9.73818 12.4951C9.02398 12.5273 8.80979 12.5344 7.00076 12.5344C5.19172 12.5344 4.97753 12.5277 4.26334 12.4951C3.83373 12.4898 3.40821 12.4109 3.00527 12.2619C2.71307 12.1492 2.44769 11.9765 2.22624 11.7551C2.00479 11.5336 1.83216 11.2683 1.71947 10.9761C1.57038 10.5731 1.4915 10.1476 1.48624 9.71799C1.45398 9.00347 1.44689 8.78928 1.44689 6.98057C1.44689 5.17186 1.45366 4.95767 1.48624 4.24315C1.4915 3.81355 1.57038 3.38803 1.71947 2.98509C1.83216 2.69288 2.00479 2.42751 2.22624 2.20605C2.44769 1.9846 2.71307 1.81197 3.00527 1.69928C3.40821 1.5502 3.83373 1.47131 4.26334 1.46605C4.97785 1.4338 5.19205 1.4267 7.00076 1.4267ZM7.00076 0.206055C5.16205 0.206055 4.93043 0.213797 4.20785 0.2467C3.64561 0.257883 3.08934 0.364339 2.56269 0.561539C2.11092 0.731753 1.70172 0.998495 1.36366 1.34315C1.01869 1.68134 0.751722 2.09076 0.581401 2.54283C0.384201 3.06947 0.277746 3.62575 0.266563 4.18799C0.234304 4.90992 0.226562 5.14154 0.226562 6.98025C0.226562 8.81896 0.234304 9.05057 0.267208 9.77315C0.278391 10.3354 0.384847 10.8917 0.582046 11.4183C0.752178 11.8703 1.01892 12.2797 1.36366 12.618C1.70191 12.9627 2.11133 13.2295 2.56334 13.3996C3.08998 13.5968 3.64626 13.7033 4.2085 13.7144C4.93108 13.7467 5.16172 13.7551 7.0014 13.7551C8.84108 13.7551 9.07172 13.7473 9.7943 13.7144C10.3565 13.7033 10.9128 13.5968 11.4395 13.3996C11.8893 13.2252 12.2978 12.9589 12.6389 12.6176C12.98 12.2763 13.246 11.8676 13.4201 11.4177C13.6173 10.891 13.7238 10.3347 13.735 9.7725C13.7672 9.05057 13.775 8.81896 13.775 6.98025C13.775 5.14154 13.7672 4.90992 13.7343 4.18734C13.7231 3.6251 13.6167 3.06883 13.4195 2.54218C13.2493 2.09018 12.9826 1.68076 12.6379 1.34251C12.2996 0.997771 11.8902 0.731025 11.4382 0.560893C10.9115 0.363693 10.3553 0.257238 9.79301 0.246055C9.07108 0.213797 8.83947 0.206055 7.00076 0.206055Z" fill="#121212"/>
<path d="M7.00215 3.50293C6.31413 3.50293 5.64155 3.70695 5.06948 4.0892C4.49741 4.47144 4.05154 5.01474 3.78824 5.65039C3.52494 6.28605 3.45605 6.9855 3.59028 7.6603C3.72451 8.3351 4.05582 8.95495 4.54233 9.44146C5.02884 9.92796 5.64868 10.2593 6.32349 10.3935C6.99829 10.5277 7.69774 10.4588 8.33339 10.1955C8.96904 9.93225 9.51234 9.48638 9.89459 8.91431C10.2768 8.34224 10.4809 7.66966 10.4809 6.98164C10.4809 6.05903 10.1144 5.1742 9.46197 4.52182C8.80958 3.86944 7.92476 3.50293 7.00215 3.50293ZM7.00215 9.2397C6.55555 9.2397 6.11897 9.10727 5.74764 8.85915C5.3763 8.61103 5.08688 8.25837 4.91597 7.84576C4.74506 7.43316 4.70034 6.97913 4.78747 6.54111C4.8746 6.10309 5.08966 5.70074 5.40546 5.38495C5.72125 5.06915 6.1236 4.85409 6.56162 4.76696C6.99964 4.67983 7.45367 4.72455 7.86627 4.89546C8.27888 5.06637 8.63154 5.35579 8.87966 5.72713C9.12778 6.09846 9.26021 6.53504 9.26021 6.98164C9.26021 7.58051 9.02231 8.15486 8.59884 8.57833C8.17537 9.0018 7.60102 9.2397 7.00215 9.2397Z" fill="#121212"/>
<path d="M10.6176 4.17756C11.0665 4.17756 11.4305 3.81362 11.4305 3.36466C11.4305 2.91571 11.0665 2.55176 10.6176 2.55176C10.1686 2.55176 9.80469 2.91571 9.80469 3.36466C9.80469 3.81362 10.1686 4.17756 10.6176 4.17756Z" fill="#121212"/>
</svg>
