<svg width="28" height="29" viewBox="0 0 28 29" fill="none" xmlns="http://www.w3.org/2000/svg">
<g id="3">
<circle id="BG" cx="14" cy="14.9795" r="13.5" fill="white" stroke="#E8E8E8"/>
<g id="logo-instagram 1">
<g id="Group">
<path id="Vector" d="M14.0008 9.4267C15.8095 9.4267 16.0237 9.43347 16.7382 9.46605C17.1678 9.47131 17.5933 9.5502 17.9962 9.69928C18.2884 9.81197 18.5538 9.9846 18.7753 10.2061C18.9967 10.4275 19.1694 10.6929 19.282 10.9851C19.4311 11.388 19.51 11.8135 19.5153 12.2432C19.5475 12.9577 19.5546 13.1719 19.5546 14.9806C19.5546 16.7893 19.5479 17.0035 19.5153 17.718C19.51 18.1476 19.4311 18.5731 19.282 18.9761C19.1694 19.2683 18.9967 19.5336 18.7753 19.7551C18.5538 19.9765 18.2884 20.1492 17.9962 20.2619C17.5933 20.4109 17.1678 20.4898 16.7382 20.4951C16.024 20.5273 15.8098 20.5344 14.0008 20.5344C12.1917 20.5344 11.9775 20.5277 11.2633 20.4951C10.8337 20.4898 10.4082 20.4109 10.0053 20.2619C9.71307 20.1492 9.44769 19.9765 9.22624 19.7551C9.00479 19.5336 8.83216 19.2683 8.71947 18.9761C8.57038 18.5731 8.4915 18.1476 8.48624 17.718C8.45398 17.0035 8.44689 16.7893 8.44689 14.9806C8.44689 13.1719 8.45366 12.9577 8.48624 12.2432C8.4915 11.8135 8.57038 11.388 8.71947 10.9851C8.83216 10.6929 9.00479 10.4275 9.22624 10.2061C9.44769 9.9846 9.71307 9.81197 10.0053 9.69928C10.4082 9.5502 10.8337 9.47131 11.2633 9.46605C11.9779 9.4338 12.192 9.4267 14.0008 9.4267ZM14.0008 8.20605C12.162 8.20605 11.9304 8.2138 11.2079 8.2467C10.6456 8.25788 10.0893 8.36434 9.56269 8.56154C9.11092 8.73175 8.70172 8.99849 8.36366 9.34315C8.01869 9.68134 7.75172 10.0908 7.5814 10.5428C7.3842 11.0695 7.27775 11.6257 7.26656 12.188C7.2343 12.9099 7.22656 13.1415 7.22656 14.9802C7.22656 16.819 7.2343 17.0506 7.26721 17.7732C7.27839 18.3354 7.38485 18.8917 7.58205 19.4183C7.75218 19.8703 8.01892 20.2797 8.36366 20.618C8.70191 20.9627 9.11133 21.2295 9.56334 21.3996C10.09 21.5968 10.6463 21.7033 11.2085 21.7144C11.9311 21.7467 12.1617 21.7551 14.0014 21.7551C15.8411 21.7551 16.0717 21.7473 16.7943 21.7144C17.3565 21.7033 17.9128 21.5968 18.4395 21.3996C18.8893 21.2252 19.2978 20.9589 19.6389 20.6176C19.98 20.2763 20.246 19.8676 20.4201 19.4177C20.6173 18.891 20.7238 18.3347 20.735 17.7725C20.7672 17.0506 20.775 16.819 20.775 14.9802C20.775 13.1415 20.7672 12.9099 20.7343 12.1873C20.7231 11.6251 20.6167 11.0688 20.4195 10.5422C20.2493 10.0902 19.9826 9.68076 19.6379 9.34251C19.2996 8.99777 18.8902 8.73102 18.4382 8.56089C17.9115 8.36369 17.3553 8.25724 16.793 8.24605C16.0711 8.2138 15.8395 8.20605 14.0008 8.20605Z" fill="#121212"/>
<path id="Vector_2" d="M14.0021 11.5029C13.3141 11.5029 12.6416 11.707 12.0695 12.0892C11.4974 12.4714 11.0515 13.0147 10.7882 13.6504C10.5249 14.286 10.4561 14.9855 10.5903 15.6603C10.7245 16.3351 11.0558 16.955 11.5423 17.4415C12.0288 17.928 12.6487 18.2593 13.3235 18.3935C13.9983 18.5277 14.6977 18.4588 15.3334 18.1955C15.969 17.9323 16.5123 17.4864 16.8946 16.9143C17.2768 16.3422 17.4809 15.6697 17.4809 14.9816C17.4809 14.059 17.1144 13.1742 16.462 12.5218C15.8096 11.8694 14.9248 11.5029 14.0021 11.5029ZM14.0021 17.2397C13.5555 17.2397 13.119 17.1073 12.7476 16.8592C12.3763 16.611 12.0869 16.2584 11.916 15.8458C11.7451 15.4332 11.7003 14.9791 11.7875 14.5411C11.8746 14.1031 12.0897 13.7007 12.4055 13.3849C12.7213 13.0692 13.1236 12.8541 13.5616 12.767C13.9996 12.6798 14.4537 12.7246 14.8663 12.8955C15.2789 13.0664 15.6315 13.3558 15.8797 13.7271C16.1278 14.0985 16.2602 14.535 16.2602 14.9816C16.2602 15.5805 16.0223 16.1549 15.5988 16.5783C15.1754 17.0018 14.601 17.2397 14.0021 17.2397Z" fill="#121212"/>
<path id="Vector_3" d="M17.6176 12.1776C18.0665 12.1776 18.4305 11.8136 18.4305 11.3647C18.4305 10.9157 18.0665 10.5518 17.6176 10.5518C17.1686 10.5518 16.8047 10.9157 16.8047 11.3647C16.8047 11.8136 17.1686 12.1776 17.6176 12.1776Z" fill="#121212"/>
</g>
</g>
</g>
</svg>
