<svg width="12" height="10" viewBox="0 0 12 10" fill="none" xmlns="http://www.w3.org/2000/svg">
<path d="M11.2071 1.96259C10.7881 2.14883 10.3458 2.26522 9.88023 2.33506C10.3458 2.05571 10.7183 1.61341 10.8812 1.07799C10.4389 1.33406 9.95006 1.52029 9.41465 1.63669C8.99562 1.19439 8.39037 0.915039 7.73856 0.915039C6.48149 0.915039 5.45721 1.93932 5.45721 3.19638C5.45721 3.38261 5.48049 3.54557 5.52705 3.70852C3.64145 3.6154 1.94208 2.70752 0.801411 1.31078C0.615178 1.65997 0.498783 2.03243 0.498783 2.45145C0.498783 3.24294 0.894527 3.94131 1.52306 4.36033C1.1506 4.33705 0.801411 4.24394 0.475504 4.08099V4.10426C0.475504 5.22166 1.26699 6.15282 2.31455 6.36233C2.12831 6.40889 1.9188 6.43217 1.70929 6.43217C1.56962 6.43217 1.40666 6.40889 1.26699 6.38561C1.56962 7.29349 2.40766 7.96858 3.40866 7.96858C2.61717 8.57384 1.63945 8.9463 0.56862 8.9463C0.382388 8.9463 0.196156 8.9463 0.0332031 8.92302C1.05748 9.57483 2.24471 9.9473 3.54833 9.9473C7.76184 9.9473 10.0665 6.45544 10.0665 3.42917C10.0665 3.33606 10.0665 3.21966 10.0665 3.12655C10.5088 2.82392 10.9045 2.42818 11.2071 1.96259Z" fill="#121212"/>
</svg>
