<svg width="28" height="29" viewBox="0 0 28 29" fill="none" xmlns="http://www.w3.org/2000/svg">
<g id="1">
<circle id="BG" cx="14" cy="14.9795" r="13.5" fill="white" stroke="#E8E8E8"/>
<g id="logo-twitter 2">
<g id="Group">
<path id="Vector" d="M20.2071 11.9626C19.7881 12.1488 19.3458 12.2652 18.8802 12.3351C19.3458 12.0557 19.7183 11.6134 19.8812 11.078C19.4389 11.3341 18.9501 11.5203 18.4146 11.6367C17.9956 11.1944 17.3904 10.915 16.7386 10.915C15.4815 10.915 14.4572 11.9393 14.4572 13.1964C14.4572 13.3826 14.4805 13.5456 14.5271 13.7085C12.6415 13.6154 10.9421 12.7075 9.80141 11.3108C9.61518 11.66 9.49878 12.0324 9.49878 12.4515C9.49878 13.2429 9.89453 13.9413 10.5231 14.3603C10.1506 14.3371 9.80141 14.2439 9.4755 14.081V14.1043C9.4755 15.2217 10.267 16.1528 11.3145 16.3623C11.1283 16.4089 10.9188 16.4322 10.7093 16.4322C10.5696 16.4322 10.4067 16.4089 10.267 16.3856C10.5696 17.2935 11.4077 17.9686 12.4087 17.9686C11.6172 18.5738 10.6395 18.9463 9.56862 18.9463C9.38239 18.9463 9.19616 18.9463 9.0332 18.923C10.0575 19.5748 11.2447 19.9473 12.5483 19.9473C16.7618 19.9473 19.0665 16.4554 19.0665 13.4292C19.0665 13.3361 19.0665 13.2197 19.0665 13.1265C19.5088 12.8239 19.9045 12.4282 20.2071 11.9626Z" fill="#121212"/>
</g>
</g>
</g>
</svg>
