<svg width="17" height="16" viewBox="0 0 17 16" fill="none" xmlns="http://www.w3.org/2000/svg">
<path d="M13.8381 6.53062L8.83812 11.5306C8.76845 11.6005 8.68565 11.656 8.59449 11.6939C8.50332 11.7317 8.40558 11.7512 8.30687 11.7512C8.20816 11.7512 8.11042 11.7317 8.01926 11.6939C7.9281 11.656 7.8453 11.6005 7.77562 11.5306L2.77562 6.53062C2.63473 6.38973 2.55557 6.19863 2.55557 5.99937C2.55557 5.80012 2.63473 5.60902 2.77562 5.46812C2.91652 5.32723 3.10762 5.24807 3.30687 5.24807C3.50613 5.24807 3.69723 5.32723 3.83812 5.46812L8.3075 9.9375L12.7769 5.4675C12.9178 5.3266 13.1089 5.24745 13.3081 5.24745C13.5074 5.24745 13.6985 5.3266 13.8394 5.4675C13.9803 5.6084 14.0594 5.79949 14.0594 5.99875C14.0594 6.19801 13.9803 6.3891 13.8394 6.53L13.8381 6.53062Z" fill="#121212"/>
</svg>
