<svg width="159" height="24" viewBox="0 0 159 24" fill="none" xmlns="http://www.w3.org/2000/svg">
<path d="M154.841 20.6666C152.53 22.8532 149.454 23.9466 145.614 23.9466C141.774 23.9466 138.699 22.8532 136.388 20.6666C134.076 18.4799 132.921 15.591 132.921 11.9999C132.921 8.40878 134.076 5.51989 136.388 3.33322C138.699 1.14656 141.774 0.0532227 145.614 0.0532227C149.454 0.0532227 152.53 1.14656 154.841 3.33322C157.152 5.51989 158.308 8.40878 158.308 11.9999C158.308 15.591 157.152 18.4799 154.841 20.6666ZM141.774 16.0799C142.805 17.0754 144.085 17.5732 145.614 17.5732C147.143 17.5732 148.414 17.0754 149.428 16.0799C150.459 15.0843 150.974 13.7243 150.974 11.9999C150.974 10.2754 150.459 8.91545 149.428 7.91989C148.414 6.92433 147.143 6.42656 145.614 6.42656C144.085 6.42656 142.805 6.92433 141.774 7.91989C140.761 8.91545 140.254 10.2754 140.254 11.9999C140.254 13.7243 140.761 15.0843 141.774 16.0799Z" fill="#121212"/>
<path d="M119.758 23.9466C115.989 23.9466 112.949 22.8532 110.638 20.6666C108.326 18.4799 107.171 15.591 107.171 11.9999C107.171 8.40878 108.326 5.51989 110.638 3.33322C112.949 1.14656 115.989 0.0532227 119.758 0.0532227C120.895 0.0532227 121.98 0.159889 123.011 0.373222C124.042 0.568778 125.055 0.915445 126.051 1.41322C127.046 1.89322 127.918 2.50656 128.664 3.25322C129.411 3.98211 130.042 4.93322 130.558 6.10656C131.091 7.26211 131.429 8.56878 131.571 10.0266H124.531C123.926 7.62656 122.335 6.42656 119.758 6.42656C118.264 6.42656 117.011 6.94211 115.998 7.97322C115.002 9.00433 114.504 10.3466 114.504 11.9999C114.504 13.6532 115.002 14.9954 115.998 16.0266C117.011 17.0577 118.264 17.5732 119.758 17.5732C122.335 17.5732 123.926 16.3554 124.531 13.9199H131.571C131.393 15.751 130.94 17.3421 130.211 18.6932C129.482 20.0266 128.558 21.0666 127.438 21.8132C126.318 22.5599 125.118 23.1021 123.838 23.4399C122.575 23.7777 121.215 23.9466 119.758 23.9466Z" fill="#121212"/>
<path d="M104.619 22.56C103.89 23.2711 103.028 23.6266 102.032 23.6266C101.036 23.6266 100.174 23.2711 99.4454 22.56C98.7165 21.8311 98.3521 20.9777 98.3521 20C98.3521 19.0222 98.7165 18.1777 99.4454 17.4666C100.174 16.7377 101.036 16.3733 102.032 16.3733C103.028 16.3733 103.89 16.7377 104.619 17.4666C105.348 18.1777 105.712 19.0222 105.712 20C105.712 20.9777 105.348 21.8311 104.619 22.56Z" fill="#121212"/>
<path d="M75.8833 23.1998V0.799805H88.6033C91.7322 0.799805 94.1322 1.5198 95.8033 2.9598C97.4922 4.3998 98.3366 6.59536 98.3366 9.54647C98.3366 12.4976 97.4922 14.6931 95.8033 16.1331C94.1322 17.5731 91.7411 18.2931 88.63 18.2931H83.27V23.1998H75.8833ZM83.27 12.1598H87.9633C88.87 12.1598 89.5811 11.9376 90.0966 11.4931C90.63 11.0487 90.8966 10.3998 90.8966 9.54647C90.8966 8.69314 90.6389 8.04425 90.1233 7.5998C89.6077 7.15536 88.8966 6.93314 87.99 6.93314H83.27V12.1598Z" fill="#121212"/>
<path d="M70.9347 20.6666C68.6235 22.8532 65.548 23.9466 61.708 23.9466C57.868 23.9466 54.7924 22.8532 52.4813 20.6666C50.1702 18.4799 49.0146 15.591 49.0146 11.9999C49.0146 8.40878 50.1702 5.51989 52.4813 3.33322C54.7924 1.14656 57.868 0.0532227 61.708 0.0532227C65.548 0.0532227 68.6235 1.14656 70.9347 3.33322C73.2458 5.51989 74.4013 8.40878 74.4013 11.9999C74.4013 15.591 73.2458 18.4799 70.9347 20.6666ZM57.868 16.0799C58.8991 17.0754 60.1791 17.5732 61.708 17.5732C63.2369 17.5732 64.508 17.0754 65.5213 16.0799C66.5524 15.0843 67.068 13.7243 67.068 11.9999C67.068 10.2754 66.5524 8.91545 65.5213 7.91989C64.508 6.92433 63.2369 6.42656 61.708 6.42656C60.1791 6.42656 58.8991 6.92433 57.868 7.91989C56.8546 8.91545 56.348 10.2754 56.348 11.9999C56.348 13.7243 56.8546 15.0843 57.868 16.0799Z" fill="#121212"/>
<path d="M40.1508 0.799805H47.5375V23.1998H40.1508V15.0931H31.4575V23.1998H24.0708V0.799805H31.4575V8.90647H40.1508V0.799805Z" fill="#121212"/>
<path d="M11.2062 23.9466C7.29512 23.9288 4.42401 23.271 2.5929 21.9732C0.779564 20.6754 -0.0826584 18.5866 0.00623053 15.7066H6.64623C6.73512 17.3421 8.25512 18.1688 11.2062 18.1866C12.5573 18.2043 13.5796 18.0443 14.2729 17.7066C14.984 17.3688 15.3396 16.9243 15.3396 16.3732C15.3396 15.431 14.4773 14.8354 12.7529 14.5866L9.8729 14.1332C7.38401 13.7243 5.7129 13.3777 4.85956 13.0932C2.49512 12.2754 1.09956 10.8266 0.672897 8.74656C0.584008 8.26656 0.539564 7.751 0.539564 7.19989C0.539564 4.94211 1.44623 3.191 3.25956 1.94656C5.09067 0.684334 7.75734 0.0532227 11.2596 0.0532227C12.6107 0.0532227 13.8107 0.133223 14.8596 0.293222C15.9262 0.453222 16.9218 0.728778 17.8462 1.11989C18.7885 1.49322 19.5618 1.991 20.1662 2.61322C20.7707 3.21767 21.2329 3.991 21.5529 4.93322C21.8907 5.87544 22.0507 6.97767 22.0329 8.23989H15.4462C15.1618 6.62211 13.7129 5.81322 11.0996 5.81322C8.78845 5.81322 7.6329 6.39989 7.6329 7.57322C7.6329 8.47989 8.33512 9.03989 9.73956 9.25322L12.1129 9.65322C12.4329 9.70656 12.8862 9.77767 13.4729 9.86656C14.0596 9.95545 14.5396 10.0266 14.9129 10.0799C15.304 10.1332 15.784 10.2221 16.3529 10.3466C16.9218 10.4532 17.3929 10.5688 17.7662 10.6932C18.1396 10.7999 18.5662 10.951 19.0462 11.1466C19.5262 11.3421 19.9262 11.5554 20.2462 11.7866C20.5662 11.9999 20.8862 12.2666 21.2062 12.5866C21.544 12.9066 21.8107 13.2621 22.0062 13.6532C22.2018 14.0443 22.3618 14.4977 22.4862 15.0132C22.6107 15.511 22.6729 16.0621 22.6729 16.6666C22.6729 21.5377 18.8507 23.9643 11.2062 23.9466Z" fill="#121212"/>
</svg>
