<svg width="12" height="14" viewBox="0 0 12 14" fill="none" xmlns="http://www.w3.org/2000/svg">
<path d="M0.102395 0.791998C-0.0369058 1.032 -0.0369057 1.32 0.119808 1.56C0.119808 1.576 0.13722 1.576 0.13722 1.592L4.31626 6.984V13.048C4.31626 13.272 4.45556 13.464 4.66451 13.56C4.75157 13.592 4.83863 13.608 4.9257 13.608C5.065 13.608 5.2043 13.56 5.30878 13.48L7.45053 11.832C7.58983 11.72 7.6769 11.576 7.6769 11.4V6.968L11.8559 1.576C11.8559 1.56 11.8733 1.56 11.8733 1.544C12.0301 1.304 12.0475 1.016 11.8908 0.775998C11.7515 0.535998 11.4729 0.391998 11.1768 0.391998H0.816314C0.520299 0.391998 0.241696 0.551998 0.102395 0.791998ZM10.4281 1.512L6.5799 6.472C6.51025 6.568 6.45801 6.68 6.45801 6.792V11.128L5.53514 11.832V6.792C5.53514 6.68 5.50031 6.568 5.41325 6.472L1.58247 1.512H10.4281Z" fill="black"/>
</svg>
